<?xml version="1.0" standalone="no"?>
<!DOCTYPE svg PUBLIC "-//W3C//DTD SVG 20010904//EN"
 "http://www.w3.org/TR/2001/REC-SVG-20010904/DTD/svg10.dtd">
<svg version="1.0" xmlns="http://www.w3.org/2000/svg"
 width="512.000000pt" height="512.000000pt" viewBox="0 0 512.000000 512.000000"
 preserveAspectRatio="xMidYMid meet">
<metadata>
Created by potrace 1.14, written by Peter Selinger 2001-2017
</metadata>
<g transform="translate(0.000000,512.000000) scale(0.100000,-0.100000)"
fill="#000000" stroke="none">
<path d="M2368 5115 c-1 -1 -37 -6 -77 -9 -41 -4 -78 -9 -81 -11 -3 -2 -33 -7
-65 -10 -77 -9 -340 -76 -427 -108 -36 -14 -69 -23 -72 -20 -3 4 -6 1 -6 -5 0
-7 -7 -12 -15 -12 -8 0 -23 -4 -33 -9 -19 -11 -49 -21 -58 -20 -4 0 -10 -3
-13 -8 -3 -4 -40 -24 -81 -43 -84 -39 -258 -139 -307 -176 -17 -13 -36 -24
-41 -24 -6 0 -12 -3 -14 -8 -1 -4 -40 -35 -85 -70 -120 -90 -272 -234 -364
-343 -24 -28 -49 -57 -55 -63 -42 -45 -214 -296 -214 -314 0 -6 -4 -12 -9 -14
-17 -6 -167 -318 -187 -388 -2 -8 -18 -55 -34 -105 -17 -49 -32 -96 -34 -105
-2 -8 -6 -22 -9 -30 -4 -8 -9 -28 -12 -45 -8 -38 -13 -60 -15 -60 -1 0 -3 -9
-4 -20 -1 -11 -6 -38 -10 -60 -15 -76 -17 -90 -21 -120 -2 -16 -7 -59 -11 -95
-5 -36 -9 -157 -8 -270 0 -185 3 -250 19 -345 3 -16 7 -46 10 -65 2 -19 4 -35
5 -35 1 0 4 -13 6 -30 7 -44 64 -267 74 -290 5 -11 16 -40 24 -65 46 -143 139
-341 223 -478 63 -102 143 -218 178 -258 6 -7 21 -26 35 -44 64 -82 197 -221
296 -307 249 -218 509 -367 869 -499 28 -10 27 -10 60 -18 17 -4 39 -11 50
-16 19 -8 137 -38 180 -45 11 -2 34 -7 50 -10 17 -3 48 -8 70 -11 22 -3 46 -7
54 -10 78 -26 551 -25 706 1 17 3 59 10 95 16 36 6 101 20 145 31 44 11 91 22
104 24 13 3 31 9 40 13 9 5 21 9 26 10 17 1 220 74 225 81 3 4 16 11 30 15 35
10 213 101 289 146 34 22 67 39 71 39 5 0 10 3 12 8 2 4 32 27 68 51 36 24 67
48 68 53 2 4 10 8 17 8 8 0 18 6 22 13 4 6 28 28 53 47 80 61 214 190 300 289
30 35 60 69 66 75 43 45 244 342 244 360 0 3 13 28 30 56 16 27 26 50 22 50
-4 0 -2 4 3 8 21 15 92 184 147 347 28 86 65 226 75 290 3 17 9 37 14 46 4 9
6 18 4 21 -3 3 -1 27 4 54 32 166 36 653 6 736 -2 7 -7 31 -9 53 -9 63 -17
107 -28 150 -5 22 -12 48 -14 59 -2 10 -11 44 -20 75 -9 31 -18 63 -19 71 -5
23 -59 167 -90 240 -55 130 -178 361 -197 368 -4 2 -8 10 -8 18 0 8 -4 14 -10
14 -5 0 -10 5 -10 11 0 9 -37 65 -82 124 -190 247 -379 427 -618 586 -120 80
-127 85 -170 107 -87 46 -165 87 -170 88 -3 0 -32 13 -65 28 -80 37 -89 40
-165 66 -36 12 -72 25 -80 28 -8 3 -19 6 -25 8 -5 1 -41 12 -80 23 -69 19
-257 59 -312 65 -15 2 -28 5 -28 6 0 7 -518 23 -527 15z"/>
</g>
</svg>
